<?xml version="1.0" standalone="no"?>
<!DOCTYPE svg PUBLIC "-//W3C//DTD SVG 20010904//EN"
 "http://www.w3.org/TR/2001/REC-SVG-20010904/DTD/svg10.dtd">
<svg version="1.0" xmlns="http://www.w3.org/2000/svg"
 width="700.000000pt" height="700.000000pt" viewBox="0 0 700.000000 700.000000"
 preserveAspectRatio="xMidYMid meet">
<metadata>
Created by potrace 1.14, written by Peter Selinger 2001-2017
</metadata>
<g transform="translate(0.000000,700.000000) scale(0.100000,-0.100000)"
fill="#000000" stroke="none">
<path d="M2122 5865 c-31 -38 -61 -74 -67 -80 -5 -5 -53 -64 -105 -130 -52
-66 -99 -125 -105 -131 -5 -6 -80 -98 -165 -204 -129 -160 -355 -441 -403
-500 -7 -8 -30 -37 -52 -65 -22 -27 -47 -59 -57 -70 -14 -17 -186 -231 -221
-275 -7 -8 -30 -37 -52 -65 -22 -27 -45 -56 -52 -65 -12 -15 -72 -90 -101
-125 -25 -30 -425 -528 -434 -540 -4 -5 -26 -32 -48 -58 -22 -27 -40 -50 -40
-53 0 -8 108 -147 208 -269 10 -11 100 -124 202 -250 235 -293 381 -475 402
-500 13 -16 137 -170 244 -305 7 -8 34 -42 61 -75 27 -33 134 -166 238 -295
104 -129 191 -237 194 -240 4 -3 87 -106 186 -230 99 -124 190 -236 202 -250
l22 -24 678 -1 c373 -1 682 1 686 3 4 2 -5 18 -20 36 -15 18 -42 51 -59 72
-17 21 -96 118 -175 214 -79 96 -173 211 -209 255 -35 44 -67 82 -70 85 -3 3
-55 66 -115 140 -60 74 -112 137 -115 140 -3 3 -32 39 -65 80 -33 41 -62 77
-66 80 -3 3 -106 129 -229 280 -123 151 -226 277 -229 280 -4 3 -37 43 -74 90
-38 47 -76 94 -85 105 -177 212 -462 568 -462 576 0 8 200 259 303 380 12 14
49 59 82 100 223 275 299 364 309 364 6 0 52 -45 101 -100 50 -55 94 -105 100
-111 5 -6 42 -46 80 -90 39 -43 77 -85 85 -94 8 -9 49 -54 90 -101 41 -46 79
-89 85 -95 22 -24 84 -93 154 -172 l74 -83 -34 -36 c-19 -20 -38 -42 -44 -48
-11 -13 -144 -162 -160 -179 -15 -17 -166 -186 -200 -225 -16 -18 -35 -39 -40
-45 -6 -6 -49 -54 -95 -106 -85 -95 -153 -170 -179 -197 -7 -8 -11 -16 -8 -19
4 -5 423 -7 607 -4 l65 1 60 70 c33 38 71 82 85 98 25 28 129 146 163 185 95
109 203 231 245 276 l32 35 43 -46 c23 -26 67 -75 97 -109 30 -35 59 -68 65
-74 5 -6 39 -45 75 -86 62 -71 100 -115 145 -164 58 -66 141 -160 150 -173 10
-13 62 -15 344 -15 183 0 334 2 336 4 2 2 -13 21 -33 43 -21 22 -69 76 -107
119 -39 44 -77 87 -85 96 -8 9 -40 45 -70 79 -30 35 -64 73 -75 85 -11 12 -51
58 -90 101 -80 91 -158 178 -165 185 -3 3 -34 38 -69 78 l-64 73 29 32 c16 18
36 39 44 48 8 9 29 31 45 50 70 80 197 223 260 293 6 6 42 47 80 91 39 44 75
85 80 91 6 6 42 47 81 90 39 43 88 98 108 122 32 35 35 42 20 43 -11 0 -163 0
-338 0 l-319 1 -24 -29 c-24 -28 -101 -115 -149 -169 -14 -16 -38 -42 -53 -59
-15 -16 -96 -109 -181 -205 -85 -96 -161 -182 -169 -190 -12 -12 -16 -11 -33
10 -11 14 -50 59 -87 100 -80 89 -215 241 -257 289 -16 19 -34 39 -39 45 -6 6
-44 49 -85 96 -41 46 -81 91 -87 98 -10 11 -81 13 -348 14 -250 0 -333 3 -328
12 7 11 758 930 811 992 129 151 453 554 450 561 -2 4 -308 8 -681 8 l-679 0
-56 -70z"/>
<path d="M3565 5930 c-2 -4 193 -256 288 -372 12 -14 34 -41 49 -60 84 -106
370 -465 381 -478 7 -8 109 -136 226 -285 118 -148 226 -284 240 -301 14 -17
49 -60 76 -95 28 -35 57 -73 66 -84 23 -28 71 -87 339 -425 129 -162 240 -301
247 -308 18 -18 17 -22 -12 -57 -13 -16 -28 -34 -32 -40 -5 -5 -87 -109 -183
-230 -96 -121 -180 -227 -187 -235 -6 -8 -33 -42 -60 -75 -26 -33 -51 -64 -55
-70 -5 -5 -41 -50 -80 -100 -40 -49 -76 -94 -80 -100 -4 -5 -20 -26 -36 -45
-15 -19 -160 -201 -322 -404 -161 -203 -299 -377 -306 -385 -38 -46 -483 -604
-520 -653 -24 -31 -41 -58 -37 -60 5 -2 314 -4 687 -3 l679 1 26 34 c14 18
111 142 215 274 104 133 212 270 240 306 28 36 98 126 157 200 58 74 199 254
313 400 114 146 215 274 224 285 9 11 30 38 47 60 16 22 35 47 42 55 27 34
216 275 325 415 64 83 160 205 212 272 53 67 96 127 96 134 0 9 -23 42 -77
109 -17 21 -304 388 -440 562 -61 79 -215 276 -343 438 -127 162 -239 306
-248 319 -9 13 -22 28 -27 35 -6 6 -86 108 -179 226 -92 118 -181 231 -196
250 -15 19 -91 116 -169 215 -77 99 -151 193 -163 208 -13 16 -30 38 -40 50
l-16 21 -682 1 c-375 0 -683 -2 -685 -5z"/>
</g>
</svg>
